<mxfile host="app.diagrams.net" modified="2021-08-05T09:03:54.798Z" agent="5.0 (Windows NT 10.0; WOW64) AppleWebKit/537.36 (KHTML, like Gecko) Chrome/86.0.4240.198 Safari/537.36" etag="A3cPXvWahWrukzz8YXvq" version="14.9.3" type="github">
  <diagram id="RS2XQE96QxD7nhPrLS-P" name="Page-1">
    <mxGraphModel dx="1422" dy="756" grid="1" gridSize="10" guides="1" tooltips="1" connect="1" arrows="1" fold="1" page="1" pageScale="1" pageWidth="827" pageHeight="1169" math="0" shadow="0">
      <root>
        <mxCell id="0" />
        <mxCell id="1" parent="0" />
        <mxCell id="FecSnfW7vxlZwnLzsoq7-18" style="edgeStyle=orthogonalEdgeStyle;rounded=0;orthogonalLoop=1;jettySize=auto;html=1;fontSize=23;entryX=0;entryY=0.5;entryDx=0;entryDy=0;exitX=0.5;exitY=1;exitDx=0;exitDy=0;exitPerimeter=0;fillColor=#ffe6cc;strokeColor=#d79b00;" edge="1" parent="1" source="FecSnfW7vxlZwnLzsoq7-4" target="FecSnfW7vxlZwnLzsoq7-5">
          <mxGeometry relative="1" as="geometry">
            <mxPoint x="200" y="250" as="targetPoint" />
            <Array as="points">
              <mxPoint x="295" y="590" />
              <mxPoint x="170" y="590" />
              <mxPoint x="170" y="250" />
            </Array>
          </mxGeometry>
        </mxCell>
        <mxCell id="FecSnfW7vxlZwnLzsoq7-4" value="frist-thread" style="rounded=0;whiteSpace=wrap;html=1;fillColor=#fff2cc;strokeColor=#d6b656;" vertex="1" parent="1">
          <mxGeometry x="250" y="370" width="90" height="180" as="geometry" />
        </mxCell>
        <mxCell id="FecSnfW7vxlZwnLzsoq7-11" style="edgeStyle=orthogonalEdgeStyle;rounded=0;orthogonalLoop=1;jettySize=auto;html=1;entryX=0.5;entryY=0;entryDx=0;entryDy=0;fontSize=23;fillColor=#f8cecc;strokeColor=#FF6666;" edge="1" parent="1" source="FecSnfW7vxlZwnLzsoq7-5" target="FecSnfW7vxlZwnLzsoq7-4">
          <mxGeometry relative="1" as="geometry" />
        </mxCell>
        <mxCell id="FecSnfW7vxlZwnLzsoq7-13" style="edgeStyle=orthogonalEdgeStyle;rounded=0;orthogonalLoop=1;jettySize=auto;html=1;entryX=0.5;entryY=0;entryDx=0;entryDy=0;fontSize=23;" edge="1" parent="1" source="FecSnfW7vxlZwnLzsoq7-5" target="FecSnfW7vxlZwnLzsoq7-8">
          <mxGeometry relative="1" as="geometry" />
        </mxCell>
        <mxCell id="FecSnfW7vxlZwnLzsoq7-14" style="edgeStyle=orthogonalEdgeStyle;rounded=0;orthogonalLoop=1;jettySize=auto;html=1;entryX=0.5;entryY=0;entryDx=0;entryDy=0;fontSize=23;" edge="1" parent="1" source="FecSnfW7vxlZwnLzsoq7-5" target="FecSnfW7vxlZwnLzsoq7-9">
          <mxGeometry relative="1" as="geometry" />
        </mxCell>
        <mxCell id="FecSnfW7vxlZwnLzsoq7-15" style="edgeStyle=orthogonalEdgeStyle;rounded=0;orthogonalLoop=1;jettySize=auto;html=1;entryX=0.5;entryY=0;entryDx=0;entryDy=0;fontSize=23;" edge="1" parent="1" source="FecSnfW7vxlZwnLzsoq7-5" target="FecSnfW7vxlZwnLzsoq7-10">
          <mxGeometry relative="1" as="geometry" />
        </mxCell>
        <mxCell id="FecSnfW7vxlZwnLzsoq7-5" value="&lt;font style=&quot;font-size: 20px;&quot;&gt;Master&lt;/font&gt;" style="rounded=0;whiteSpace=wrap;html=1;fontSize=20;" vertex="1" parent="1">
          <mxGeometry x="250" y="220" width="370" height="60" as="geometry" />
        </mxCell>
        <mxCell id="FecSnfW7vxlZwnLzsoq7-6" value="&lt;span style=&quot;color: rgb(51, 51, 51); font-family: arial, sans-serif; font-size: 29px; background-color: rgb(255, 255, 255);&quot;&gt;âˆž&lt;/span&gt;" style="ellipse;whiteSpace=wrap;html=1;aspect=fixed;fontSize=29;" vertex="1" parent="1">
          <mxGeometry x="275" y="500" width="40" height="40" as="geometry" />
        </mxCell>
        <mxCell id="FecSnfW7vxlZwnLzsoq7-7" value="&lt;span style=&quot;color: rgb(51, 51, 51); font-family: &amp;quot;helvetica neue&amp;quot;, helvetica, arial, &amp;quot;hiragino sans gb&amp;quot;, &amp;quot;hiragino sans gb w3&amp;quot;, &amp;quot;microsoft yahei ui&amp;quot;, &amp;quot;microsoft yahei&amp;quot;, sans-serif; font-size: 23px;&quot;&gt;Polling allocation&lt;/span&gt;" style="text;html=1;resizable=0;autosize=1;align=center;verticalAlign=middle;points=[];fillColor=none;strokeColor=none;rounded=0;fontSize=23;" vertex="1" parent="1">
          <mxGeometry x="330" y="160" width="190" height="30" as="geometry" />
        </mxCell>
        <mxCell id="FecSnfW7vxlZwnLzsoq7-8" value="second-thread" style="rounded=0;whiteSpace=wrap;html=1;" vertex="1" parent="1">
          <mxGeometry x="390" y="370" width="70" height="180" as="geometry" />
        </mxCell>
        <mxCell id="FecSnfW7vxlZwnLzsoq7-9" value="&lt;span style=&quot;color: rgb(51 , 51 , 51) ; font-family: &amp;#34;helvetica neue&amp;#34; , &amp;#34;helvetica&amp;#34; , &amp;#34;arial&amp;#34; , &amp;#34;hiragino sans gb&amp;#34; , &amp;#34;hiragino sans gb w3&amp;#34; , &amp;#34;microsoft yahei ui&amp;#34; , &amp;#34;microsoft yahei&amp;#34; , sans-serif ; font-size: 13px ; text-align: left&quot;&gt;thirdly&lt;/span&gt;-thread" style="rounded=0;whiteSpace=wrap;html=1;" vertex="1" parent="1">
          <mxGeometry x="480" y="370" width="70" height="180" as="geometry" />
        </mxCell>
        <mxCell id="FecSnfW7vxlZwnLzsoq7-10" value="&lt;span style=&quot;color: rgb(51 , 51 , 51) ; font-family: &amp;#34;helvetica neue&amp;#34; , &amp;#34;helvetica&amp;#34; , &amp;#34;arial&amp;#34; , &amp;#34;hiragino sans gb&amp;#34; , &amp;#34;hiragino sans gb w3&amp;#34; , &amp;#34;microsoft yahei ui&amp;#34; , &amp;#34;microsoft yahei&amp;#34; , sans-serif ; font-size: 13px ; text-align: left&quot;&gt;forth&lt;/span&gt;-thread" style="rounded=0;whiteSpace=wrap;html=1;" vertex="1" parent="1">
          <mxGeometry x="570" y="370" width="70" height="180" as="geometry" />
        </mxCell>
        <mxCell id="FecSnfW7vxlZwnLzsoq7-16" value="Running&lt;br style=&quot;font-size: 18px;&quot;&gt;20/1000" style="text;html=1;resizable=0;autosize=1;align=center;verticalAlign=middle;points=[];fillColor=#fff2cc;strokeColor=#d6b656;rounded=0;fontSize=18;dashed=1;" vertex="1" parent="1">
          <mxGeometry x="130" y="380" width="80" height="50" as="geometry" />
        </mxCell>
        <mxCell id="FecSnfW7vxlZwnLzsoq7-21" value="Task + 2" style="rounded=0;whiteSpace=wrap;html=1;dashed=1;fontSize=18;fillColor=#f8cecc;strokeColor=#b85450;" vertex="1" parent="1">
          <mxGeometry x="255" y="380" width="80" height="30" as="geometry" />
        </mxCell>
        <mxCell id="FecSnfW7vxlZwnLzsoq7-22" value="Task + 1" style="rounded=0;whiteSpace=wrap;html=1;dashed=1;fontSize=18;fillColor=#f8cecc;strokeColor=#b85450;" vertex="1" parent="1">
          <mxGeometry x="255" y="420" width="80" height="30" as="geometry" />
        </mxCell>
        <mxCell id="FecSnfW7vxlZwnLzsoq7-23" value="Task&amp;nbsp;" style="rounded=0;whiteSpace=wrap;html=1;dashed=1;fontSize=18;fillColor=#d5e8d4;strokeColor=#82b366;" vertex="1" parent="1">
          <mxGeometry x="385" y="505" width="80" height="30" as="geometry" />
        </mxCell>
        <mxCell id="FecSnfW7vxlZwnLzsoq7-24" value="Task" style="rounded=0;whiteSpace=wrap;html=1;dashed=1;fontSize=18;fillColor=#d5e8d4;strokeColor=#82b366;" vertex="1" parent="1">
          <mxGeometry x="475" y="505" width="80" height="30" as="geometry" />
        </mxCell>
        <mxCell id="FecSnfW7vxlZwnLzsoq7-25" value="Task" style="rounded=0;whiteSpace=wrap;html=1;dashed=1;fontSize=18;fillColor=#d5e8d4;strokeColor=#82b366;" vertex="1" parent="1">
          <mxGeometry x="565" y="505" width="80" height="30" as="geometry" />
        </mxCell>
        <mxCell id="FecSnfW7vxlZwnLzsoq7-31" style="edgeStyle=orthogonalEdgeStyle;rounded=0;orthogonalLoop=1;jettySize=auto;html=1;fontSize=18;strokeColor=#82b366;entryX=1;entryY=0.5;entryDx=0;entryDy=0;fillColor=#d5e8d4;" edge="1" parent="1" source="FecSnfW7vxlZwnLzsoq7-26" target="FecSnfW7vxlZwnLzsoq7-5">
          <mxGeometry relative="1" as="geometry">
            <mxPoint x="640" y="260" as="targetPoint" />
            <Array as="points">
              <mxPoint x="517" y="620" />
              <mxPoint x="730" y="620" />
              <mxPoint x="730" y="250" />
            </Array>
          </mxGeometry>
        </mxCell>
        <mxCell id="FecSnfW7vxlZwnLzsoq7-26" value="" style="shape=curlyBracket;whiteSpace=wrap;html=1;rounded=1;flipH=1;dashed=1;fontSize=18;direction=north;" vertex="1" parent="1">
          <mxGeometry x="414" y="551" width="206" height="55" as="geometry" />
        </mxCell>
        <mxCell id="FecSnfW7vxlZwnLzsoq7-29" value="&lt;span style=&quot;color: rgb(51, 51, 51); font-family: &amp;quot;helvetica neue&amp;quot;, helvetica, arial, &amp;quot;hiragino sans gb&amp;quot;, &amp;quot;hiragino sans gb w3&amp;quot;, &amp;quot;microsoft yahei ui&amp;quot;, &amp;quot;microsoft yahei&amp;quot;, sans-serif; font-size: 13px; font-style: normal; font-weight: 400; letter-spacing: normal; text-indent: 0px; text-transform: none; word-spacing: 0px; display: inline; float: none;&quot;&gt;Program blocking&lt;/span&gt;" style="text;whiteSpace=wrap;html=1;fontSize=18;align=center;dashed=1;fillColor=#f8cecc;strokeColor=#b85450;" vertex="1" parent="1">
          <mxGeometry x="270" y="300" width="130" height="40" as="geometry" />
        </mxCell>
      </root>
    </mxGraphModel>
  </diagram>
</mxfile>
